<svg width="56" height="56" viewBox="0 0 56 56" fill="none" xmlns="http://www.w3.org/2000/svg">
<rect width="56" height="56" rx="24" fill="#F5FFF8"/>
<path d="M24.2134 26.4934C24.0801 26.4801 23.9201 26.4801 23.7734 26.4934C20.6001 26.3867 18.0801 23.7867 18.0801 20.5867C18.0801 17.3201 20.7201 14.6667 24.0001 14.6667C27.2667 14.6667 29.9201 17.3201 29.9201 20.5867C29.9067 23.7867 27.3867 26.3867 24.2134 26.4934Z" stroke="#08AA3B" stroke-width="1.5" stroke-linecap="round" stroke-linejoin="round"/>
<path d="M33.8804 17.3333C36.467 17.3333 38.547 19.4266 38.547 21.9999C38.547 24.5199 36.547 26.5733 34.0537 26.6666C33.947 26.6533 33.827 26.6533 33.707 26.6666" stroke="#08AA3B" stroke-width="1.5" stroke-linecap="round" stroke-linejoin="round"/>
<path d="M17.547 31.4133C14.3203 33.5733 14.3203 37.0933 17.547 39.2399C21.2136 41.6933 27.227 41.6933 30.8936 39.2399C34.1203 37.0799 34.1203 33.5599 30.8936 31.4133C27.2403 28.9733 21.227 28.9733 17.547 31.4133Z" stroke="#08AA3B" stroke-width="1.5" stroke-linecap="round" stroke-linejoin="round"/>
<path d="M36.4531 38.6667C37.4131 38.4667 38.3198 38.0801 39.0665 37.5067C41.1465 35.9467 41.1465 33.3734 39.0665 31.8134C38.3331 31.2534 37.4398 30.8801 36.4931 30.6667" stroke="#08AA3B" stroke-width="1.5" stroke-linecap="round" stroke-linejoin="round"/>
</svg>
